<svg width="356" height="356" viewBox="0 0 356 356" fill="none" xmlns="http://www.w3.org/2000/svg">
<mask id="path-1-inside-1_202_2" fill="white">
<path fill-rule="evenodd" clip-rule="evenodd" d="M0 178C0 79.6932 79.6932 0 178 0C276.306 0 355.999 79.6932 355.999 178C355.999 276.306 276.306 355.999 178 355.999C79.6932 355.999 0 276.306 0 178ZM67.6401 178C67.6401 238.95 117.05 288.36 178 288.36C238.95 288.36 288.36 238.95 288.36 178C288.36 117.05 238.95 67.6405 178 67.6405C117.05 67.6405 67.6401 117.05 67.6401 178ZM178 53.4006C109.185 53.4006 53.4001 109.186 53.4001 178C53.4001 246.815 109.185 302.6 178 302.6C246.814 302.6 302.6 246.815 302.6 178C302.6 109.186 246.814 53.4006 178 53.4006ZM177.999 217.159C156.372 217.159 138.839 199.627 138.839 177.999C138.839 156.372 156.372 138.839 177.999 138.839C199.627 138.839 217.159 156.372 217.159 177.999C217.159 199.627 199.627 217.159 177.999 217.159ZM124.599 177.999C124.599 148.507 148.507 124.599 177.999 124.599C207.491 124.599 231.399 148.507 231.399 177.999C231.399 207.491 207.491 231.399 177.999 231.399C148.507 231.399 124.599 207.491 124.599 177.999Z"/>
</mask>
<path fill-rule="evenodd" clip-rule="evenodd" d="M0 178C0 79.6932 79.6932 0 178 0C276.306 0 355.999 79.6932 355.999 178C355.999 276.306 276.306 355.999 178 355.999C79.6932 355.999 0 276.306 0 178ZM67.6401 178C67.6401 238.95 117.05 288.36 178 288.36C238.95 288.36 288.36 238.95 288.36 178C288.36 117.05 238.95 67.6405 178 67.6405C117.05 67.6405 67.6401 117.05 67.6401 178ZM178 53.4006C109.185 53.4006 53.4001 109.186 53.4001 178C53.4001 246.815 109.185 302.6 178 302.6C246.814 302.6 302.6 246.815 302.6 178C302.6 109.186 246.814 53.4006 178 53.4006ZM177.999 217.159C156.372 217.159 138.839 199.627 138.839 177.999C138.839 156.372 156.372 138.839 177.999 138.839C199.627 138.839 217.159 156.372 217.159 177.999C217.159 199.627 199.627 217.159 177.999 217.159ZM124.599 177.999C124.599 148.507 148.507 124.599 177.999 124.599C207.491 124.599 231.399 148.507 231.399 177.999C231.399 207.491 207.491 231.399 177.999 231.399C148.507 231.399 124.599 207.491 124.599 177.999Z" fill="#D5FFC0"/>
<path d="M178 -3C78.0363 -3 -3 78.0363 -3 178H3C3 81.3501 81.3501 3 178 3V-3ZM358.999 178C358.999 78.0363 277.963 -3 178 -3V3C274.649 3 352.999 81.3501 352.999 178H358.999ZM178 358.999C277.963 358.999 358.999 277.963 358.999 178H352.999C352.999 274.649 274.649 352.999 178 352.999V358.999ZM-3 178C-3 277.963 78.0363 358.999 178 358.999V352.999C81.3501 352.999 3 274.649 3 178H-3ZM178 285.36C118.707 285.36 70.6401 237.294 70.6401 178H64.6401C64.6401 240.607 115.393 291.36 178 291.36V285.36ZM285.36 178C285.36 237.294 237.293 285.36 178 285.36V291.36C240.607 291.36 291.36 240.607 291.36 178H285.36ZM178 70.6405C237.293 70.6405 285.36 118.707 285.36 178H291.36C291.36 115.393 240.607 64.6405 178 64.6405V70.6405ZM70.6401 178C70.6401 118.707 118.707 70.6405 178 70.6405V64.6405C115.393 64.6405 64.6401 115.393 64.6401 178H70.6401ZM56.4001 178C56.4001 110.843 110.842 56.4006 178 56.4006V50.4006C107.528 50.4006 50.4001 107.529 50.4001 178H56.4001ZM178 299.6C110.842 299.6 56.4001 245.158 56.4001 178H50.4001C50.4001 248.472 107.528 305.6 178 305.6V299.6ZM299.6 178C299.6 245.158 245.158 299.6 178 299.6V305.6C248.471 305.6 305.6 248.472 305.6 178H299.6ZM178 56.4006C245.158 56.4006 299.6 110.843 299.6 178H305.6C305.6 107.529 248.471 50.4006 178 50.4006V56.4006ZM135.839 177.999C135.839 201.284 154.715 220.159 177.999 220.159V214.159C158.029 214.159 141.839 197.97 141.839 177.999H135.839ZM177.999 135.839C154.715 135.839 135.839 154.715 135.839 177.999H141.839C141.839 158.029 158.029 141.839 177.999 141.839V135.839ZM220.159 177.999C220.159 154.715 201.284 135.839 177.999 135.839V141.839C197.97 141.839 214.159 158.029 214.159 177.999H220.159ZM177.999 220.159C201.284 220.159 220.159 201.284 220.159 177.999H214.159C214.159 197.97 197.97 214.159 177.999 214.159V220.159ZM177.999 121.599C146.851 121.599 121.599 146.851 121.599 177.999H127.599C127.599 150.164 150.164 127.599 177.999 127.599V121.599ZM234.399 177.999C234.399 146.851 209.148 121.599 177.999 121.599V127.599C205.834 127.599 228.399 150.164 228.399 177.999H234.399ZM177.999 234.399C209.148 234.399 234.399 209.148 234.399 177.999H228.399C228.399 205.834 205.834 228.399 177.999 228.399V234.399ZM121.599 177.999C121.599 209.148 146.851 234.399 177.999 234.399V228.399C150.164 228.399 127.599 205.834 127.599 177.999H121.599Z" fill="black" mask="url(#path-1-inside-1_202_2)"/>
</svg>
