<svg width="356" height="356" viewBox="0 0 356 356" fill="none" xmlns="http://www.w3.org/2000/svg">
<path fill-rule="evenodd" clip-rule="evenodd" d="M0 178C0 79.6932 79.6932 0 178 0C276.306 0 355.999 79.6932 355.999 178C355.999 276.306 276.306 355.999 178 355.999C79.6932 355.999 0 276.306 0 178ZM67.6401 178C67.6401 238.95 117.05 288.36 178 288.36C238.95 288.36 288.36 238.95 288.36 178C288.36 117.05 238.95 67.6405 178 67.6405C117.05 67.6405 67.6401 117.05 67.6401 178ZM178 53.4006C109.185 53.4006 53.4001 109.186 53.4001 178C53.4001 246.815 109.185 302.6 178 302.6C246.814 302.6 302.6 246.815 302.6 178C302.6 109.186 246.814 53.4006 178 53.4006ZM177.999 217.159C156.372 217.159 138.839 199.627 138.839 177.999C138.839 156.372 156.372 138.839 177.999 138.839C199.627 138.839 217.159 156.372 217.159 177.999C217.159 199.627 199.627 217.159 177.999 217.159ZM124.599 177.999C124.599 148.507 148.507 124.599 177.999 124.599C207.491 124.599 231.399 148.507 231.399 177.999C231.399 207.491 207.491 231.399 177.999 231.399C148.507 231.399 124.599 207.491 124.599 177.999Z" fill="#111111"/>
</svg>
