<svg width="1517" height="356" viewBox="0 0 1517 356" fill="none" xmlns="http://www.w3.org/2000/svg">
<path d="M177.999 217.159C156.372 217.159 138.839 199.627 138.839 177.999C138.839 156.372 156.372 138.839 177.999 138.839C199.627 138.839 217.159 156.372 217.159 177.999C217.159 199.627 199.627 217.159 177.999 217.159Z" fill="#111111"/>
<path fill-rule="evenodd" clip-rule="evenodd" d="M67.6401 178C67.6401 238.95 117.05 288.36 178 288.36C238.95 288.36 288.36 238.95 288.36 178C288.36 117.05 238.95 67.6405 178 67.6405C117.05 67.6405 67.6401 117.05 67.6401 178ZM124.599 177.999C124.599 148.507 148.507 124.599 177.999 124.599C207.491 124.599 231.399 148.507 231.399 177.999C231.399 207.491 207.491 231.399 177.999 231.399C148.507 231.399 124.599 207.491 124.599 177.999Z" fill="#111111"/>
<path fill-rule="evenodd" clip-rule="evenodd" d="M0 178C0 79.6932 79.6932 0 178 0C276.306 0 355.999 79.6932 355.999 178C355.999 276.306 276.306 355.999 178 355.999C79.6932 355.999 0 276.306 0 178ZM178 53.4006C109.185 53.4006 53.4001 109.186 53.4001 178C53.4001 246.815 109.185 302.6 178 302.6C246.814 302.6 302.6 246.815 302.6 178C302.6 109.186 246.814 53.4006 178 53.4006Z" fill="#111111"/>
<path d="M505.875 217.984C509.007 225.104 514.419 228.664 522.108 228.664C529.798 228.664 535.28 225.033 538.555 217.771C541.83 210.508 543.468 198.547 543.468 181.886C543.468 165.083 541.83 153.05 538.555 145.788C535.28 138.383 529.798 134.68 522.108 134.68C514.419 134.68 509.007 138.383 505.875 145.788C502.742 153.05 501.175 165.083 501.175 181.886C501.175 198.689 502.742 210.722 505.875 217.984ZM521.681 232.936C508.153 232.936 495.907 228.522 484.942 219.693C473.977 210.864 468.495 198.333 468.495 182.1C468.495 173.413 470.061 165.652 473.194 158.817C476.469 151.982 480.741 146.571 486.01 142.584C491.421 138.596 497.188 135.606 503.311 133.612C509.435 131.476 515.7 130.408 522.108 130.408C528.516 130.408 534.782 131.476 540.905 133.612C547.17 135.606 552.938 138.596 558.206 142.584C563.618 146.571 567.961 151.982 571.236 158.817C574.511 165.652 576.149 173.342 576.149 181.886C576.149 190.43 574.511 198.048 571.236 204.741C567.961 211.434 563.618 216.774 558.206 220.761C547.384 228.878 535.209 232.936 521.681 232.936Z" fill="#111111"/>
<path d="M703.337 226.528H714.017V230.8H660.617V226.528H671.297V166.72C671.297 156.61 669.802 149.419 666.812 145.147C663.821 140.875 659.336 138.739 653.355 138.739C645.238 138.739 638.759 143.011 633.918 151.555V226.528H644.598V230.8H591.198V226.528H601.878V136.816H591.198V132.544H633.918V143.652C636.623 139.949 640.824 136.816 646.52 134.253C652.358 131.548 658.624 130.195 665.317 130.195C690.664 130.195 703.337 143.936 703.337 171.42V226.528Z" fill="#111111"/>
<path d="M771.589 226.528H782.269V230.8H728.869V226.528H739.549V136.816H731.005V132.544H771.589V226.528ZM773.512 104.349C773.512 109.476 771.66 113.89 767.958 117.592C764.398 121.152 759.984 122.933 754.715 122.933C749.588 122.933 745.174 121.152 741.472 117.592C737.769 113.89 735.918 109.476 735.918 104.349C735.918 99.0805 737.769 94.595 741.472 90.8926C745.174 87.1902 749.588 85.339 754.715 85.339C759.984 85.339 764.398 87.1902 767.958 90.8926C771.66 94.595 773.512 99.0805 773.512 104.349Z" fill="#111111"/>
<path d="M832.532 217.984C835.665 225.104 841.076 228.664 848.765 228.664C856.455 228.664 861.937 225.033 865.213 217.771C868.488 210.508 870.125 198.547 870.125 181.886C870.125 165.083 868.488 153.05 865.213 145.788C861.937 138.383 856.455 134.68 848.765 134.68C841.076 134.68 835.665 138.383 832.532 145.788C829.399 153.05 827.833 165.083 827.833 181.886C827.833 198.689 829.399 210.722 832.532 217.984ZM848.338 232.936C834.81 232.936 822.564 228.522 811.599 219.693C800.634 210.864 795.152 198.333 795.152 182.1C795.152 173.413 796.718 165.652 799.851 158.817C803.126 151.982 807.398 146.571 812.667 142.584C818.078 138.596 823.845 135.606 829.969 133.612C836.092 131.476 842.357 130.408 848.765 130.408C855.173 130.408 861.439 131.476 867.562 133.612C873.828 135.606 879.595 138.596 884.864 142.584C890.275 146.571 894.618 151.982 897.893 158.817C901.168 165.652 902.806 173.342 902.806 181.886C902.806 190.43 901.168 198.048 897.893 204.741C894.618 211.434 890.275 216.774 884.864 220.761C874.041 228.878 861.866 232.936 848.338 232.936Z" fill="#111111"/>
<path d="M1029.99 226.528H1040.67V230.8H987.275V226.528H997.955V166.72C997.955 156.61 996.459 149.419 993.469 145.147C990.479 140.875 985.993 138.739 980.012 138.739C971.895 138.739 965.416 143.011 960.575 151.555V226.528H971.255V230.8H917.855V226.528H928.535V136.816H917.855V132.544H960.575V143.652C963.28 139.949 967.481 136.816 973.177 134.253C979.016 131.548 985.281 130.195 991.974 130.195C1017.32 130.195 1029.99 143.936 1029.99 171.42V226.528Z" fill="#111111"/>
<path d="M1154.82 230.8H1101.42V226.528H1112.1V136.816H1101.42V132.544H1144.14V157.963C1145.42 150.985 1147.7 145.289 1150.97 140.875C1154.39 136.46 1158.09 133.541 1162.08 132.117C1166.21 130.693 1170.12 129.981 1173.83 129.981C1177.67 129.981 1181.3 130.693 1184.72 132.117C1188.28 133.399 1190.92 136.104 1192.62 140.234C1194.33 144.221 1194.4 148.28 1192.84 152.409C1191.27 156.396 1188.49 159.244 1184.51 160.953C1180.66 162.662 1177.1 162.876 1173.83 161.594C1170.55 160.312 1168.2 158.604 1166.78 156.468C1165.35 154.189 1164.36 152.053 1163.79 150.06C1162.36 144.791 1160.44 142.156 1158.02 142.156C1155.32 142.156 1152.32 146.856 1149.05 156.254C1145.77 165.51 1144.14 175.336 1144.14 185.731V226.528H1154.82V230.8Z" fill="#111111"/>
<path d="M1247.39 226.528H1258.07V230.8H1204.67V226.528H1215.35V136.816H1206.81V132.544H1247.39V226.528ZM1249.31 104.349C1249.31 109.476 1247.46 113.89 1243.76 117.592C1240.2 121.152 1235.79 122.933 1230.52 122.933C1225.39 122.933 1220.98 121.152 1217.27 117.592C1213.57 113.89 1211.72 109.476 1211.72 104.349C1211.72 99.0805 1213.57 94.595 1217.27 90.8926C1220.98 87.1902 1225.39 85.339 1230.52 85.339C1235.79 85.339 1240.2 87.1902 1243.76 90.8926C1247.46 94.595 1249.31 99.0805 1249.31 104.349Z" fill="#111111"/>
<path d="M1385.23 226.528H1395.91V230.8H1342.51V226.528H1353.19V166.72C1353.19 156.61 1351.69 149.419 1348.7 145.147C1345.71 140.875 1341.23 138.739 1335.25 138.739C1327.13 138.739 1320.65 143.011 1315.81 151.555V226.528H1326.49V230.8H1273.09V226.528H1283.77V136.816H1273.09V132.544H1315.81V143.652C1318.51 139.949 1322.72 136.816 1328.41 134.253C1334.25 131.548 1340.52 130.195 1347.21 130.195C1372.56 130.195 1385.23 143.936 1385.23 171.42V226.528Z" fill="#111111"/>
<path d="M1436.82 210.936C1436.82 214.923 1439.38 217.201 1444.51 217.771H1481.25C1493.92 217.771 1502.75 220.476 1507.74 225.887C1512.72 231.299 1514.43 237.991 1512.86 245.966C1511.44 253.94 1506.6 261.274 1498.34 267.967C1490.08 274.659 1478.69 278.006 1464.16 278.006C1437.53 278.006 1420.44 274.09 1412.9 266.258C1410.05 263.125 1408.84 259.423 1409.27 255.151C1409.69 251.021 1411.26 247.603 1413.96 244.898C1416.67 242.335 1419.73 240.555 1423.15 239.558C1418.59 235.713 1416.31 230.943 1416.31 225.247C1416.31 219.551 1418.02 214.496 1421.44 210.081C1425 205.524 1429.06 201.893 1433.62 199.188C1417.24 193.207 1409.05 182.456 1409.05 166.934C1409.05 155.4 1414.32 146.5 1424.86 140.234C1435.54 133.826 1447.57 130.622 1460.96 130.622C1467.36 130.622 1473.77 131.619 1480.18 133.612C1476.91 129.198 1475.27 123.929 1475.27 117.806C1475.27 111.683 1477.33 106.628 1481.46 102.641C1485.73 98.5109 1491 96.4461 1497.27 96.4461C1503.68 96.4461 1508.45 98.1549 1511.58 101.573C1514.86 104.848 1516.49 108.55 1516.49 112.68C1516.49 116.809 1515.21 120.298 1512.65 123.146C1510.23 125.994 1506.95 127.418 1502.82 127.418C1498.84 127.418 1495.63 126.065 1493.21 123.36C1490.79 120.654 1489.58 117.949 1489.58 115.243C1489.58 112.395 1490.08 109.974 1491.07 107.981C1492.21 105.845 1492.78 104.634 1492.78 104.349C1492.36 102.071 1490.93 101.43 1488.51 102.427C1486.09 103.424 1483.95 105.489 1482.1 108.621C1480.39 111.612 1479.54 115.101 1479.54 119.088C1479.54 126.92 1483.03 133.185 1490.01 137.884C1502.25 144.72 1508.38 154.189 1508.38 166.293C1508.38 178.397 1503.32 187.582 1493.21 193.848C1483.1 199.971 1471.14 203.032 1457.33 203.032C1450.63 203.032 1444.72 202.32 1439.6 200.896C1437.75 204.029 1436.82 207.376 1436.82 210.936ZM1476.34 166.507C1476.34 154.26 1474.91 145.93 1472.06 141.516C1469.22 137.101 1464.94 134.894 1459.25 134.894C1453.69 134.894 1449.64 137.172 1447.07 141.729C1444.51 146.144 1443.23 154.332 1443.23 166.293C1443.23 178.255 1444.58 186.656 1447.29 191.498C1449.99 196.34 1454.05 198.76 1459.46 198.76C1465.02 198.76 1469.22 196.411 1472.06 191.712C1474.91 187.012 1476.34 178.611 1476.34 166.507ZM1479.97 245.539H1444.08C1437.25 245.539 1431.48 244.328 1426.78 241.907C1424.79 252.16 1427.35 259.992 1434.47 265.403C1441.73 270.957 1451.63 273.734 1464.16 273.734C1476.69 273.734 1487.09 270.601 1495.35 264.335C1499.19 261.487 1501.33 258.639 1501.75 255.791C1502.18 252.943 1500.54 250.523 1496.84 248.529C1493.14 246.535 1487.51 245.539 1479.97 245.539Z" fill="#111111"/>
</svg>
