<svg width="194" height="46" viewBox="0 0 194 46" fill="none" xmlns="http://www.w3.org/2000/svg">
<path d="M22.6852 27.676C19.9289 27.676 17.6945 25.4416 17.6945 22.6853C17.6945 19.9289 19.9289 17.6945 22.6852 17.6945C25.4415 17.6945 27.676 19.9289 27.676 22.6853C27.676 25.4416 25.4415 27.676 22.6852 27.676Z" fill="#D5FFC0"/>
<path fill-rule="evenodd" clip-rule="evenodd" d="M8.62039 22.6853C8.62039 30.4531 14.9174 36.7501 22.6853 36.7501C30.4531 36.7501 36.7501 30.4531 36.7501 22.6853C36.7501 14.9174 30.4531 8.62039 22.6853 8.62039C14.9174 8.62039 8.62039 14.9174 8.62039 22.6853ZM15.8797 22.6853C15.8797 18.9266 18.9266 15.8797 22.6852 15.8797C26.4438 15.8797 29.4908 18.9266 29.4908 22.6853C29.4908 26.4439 26.4438 29.4908 22.6852 29.4908C18.9266 29.4908 15.8797 26.4439 15.8797 22.6853Z" fill="#D5FFC0"/>
<path fill-rule="evenodd" clip-rule="evenodd" d="M0 22.6853C0 10.1565 10.1565 0 22.6853 0C35.214 0 45.3705 10.1565 45.3705 22.6853C45.3705 35.214 35.214 45.3705 22.6853 45.3705C10.1565 45.3705 0 35.214 0 22.6853ZM22.6853 6.80557C13.9152 6.80557 6.80557 13.9152 6.80557 22.6853C6.80557 31.4554 13.9152 38.5649 22.6853 38.5649C31.4554 38.5649 38.5649 31.4554 38.5649 22.6853C38.5649 13.9152 31.4554 6.80557 22.6853 6.80557Z" fill="#D5FFC0"/>
<path d="M64.4714 27.6352C64.8707 28.5426 65.5603 28.9963 66.5403 28.9963C67.5203 28.9963 68.2191 28.5335 68.6365 27.608C69.0539 26.6824 69.2626 25.158 69.2626 23.0346C69.2626 20.8931 69.0539 19.3596 68.6365 18.434C68.2191 17.4903 67.5203 17.0185 66.5403 17.0185C65.5603 17.0185 64.8707 17.4903 64.4714 18.434C64.0722 19.3596 63.8726 20.8931 63.8726 23.0346C63.8726 25.1761 64.0722 26.7096 64.4714 27.6352ZM66.4859 29.5407C64.7618 29.5407 63.2011 28.9782 61.8037 27.853C60.4062 26.7278 59.7075 25.1307 59.7075 23.0618C59.7075 21.9548 59.9072 20.9657 60.3064 20.0946C60.7238 19.2235 61.2683 18.5339 61.9398 18.0257C62.6294 17.5176 63.3644 17.1364 64.1448 16.8824C64.9251 16.6101 65.7237 16.474 66.5403 16.474C67.357 16.474 68.1555 16.6101 68.9359 16.8824C69.7344 17.1364 70.4694 17.5176 71.1409 18.0257C71.8305 18.5339 72.3841 19.2235 72.8015 20.0946C73.2189 20.9657 73.4276 21.9457 73.4276 23.0346C73.4276 24.1235 73.2189 25.0944 72.8015 25.9474C72.3841 26.8004 71.8305 27.4809 71.1409 27.9891C69.7616 29.0235 68.21 29.5407 66.4859 29.5407Z" fill="#D5FFC0"/>
<path d="M89.6372 28.7241H90.9983V29.2685H84.1927V28.7241H85.5538V21.1018C85.5538 19.8133 85.3633 18.8968 84.9822 18.3524C84.6011 17.8079 84.0294 17.5357 83.2672 17.5357C82.2327 17.5357 81.407 18.0802 80.7899 19.169V28.7241H82.1511V29.2685H75.3455V28.7241H76.7066V17.2907H75.3455V16.7463H80.7899V18.1618C81.1348 17.69 81.6701 17.2907 82.3961 16.964C83.1401 16.6192 83.9387 16.4468 84.7916 16.4468C88.022 16.4468 89.6372 18.1981 89.6372 21.7007V28.7241Z" fill="#D5FFC0"/>
<path d="M98.3356 28.7241H99.6967V29.2685H92.8911V28.7241H94.2522V17.2907H93.1633V16.7463H98.3356V28.7241ZM98.5806 13.1529C98.5806 13.8063 98.3446 14.3688 97.8728 14.8407C97.4191 15.2944 96.8565 15.5213 96.185 15.5213C95.5317 15.5213 94.9691 15.2944 94.4972 14.8407C94.0254 14.3688 93.7894 13.8063 93.7894 13.1529C93.7894 12.4814 94.0254 11.9098 94.4972 11.4379C94.9691 10.9661 95.5317 10.7301 96.185 10.7301C96.8565 10.7301 97.4191 10.9661 97.8728 11.4379C98.3446 11.9098 98.5806 12.4814 98.5806 13.1529Z" fill="#D5FFC0"/>
<path d="M106.102 27.6352C106.502 28.5426 107.191 28.9963 108.171 28.9963C109.151 28.9963 109.85 28.5335 110.267 27.608C110.685 26.6824 110.894 25.158 110.894 23.0346C110.894 20.8931 110.685 19.3596 110.267 18.434C109.85 17.4903 109.151 17.0185 108.171 17.0185C107.191 17.0185 106.502 17.4903 106.102 18.434C105.703 19.3596 105.504 20.8931 105.504 23.0346C105.504 25.1761 105.703 26.7096 106.102 27.6352ZM108.117 29.5407C106.393 29.5407 104.832 28.9782 103.435 27.853C102.037 26.7278 101.339 25.1307 101.339 23.0618C101.339 21.9548 101.538 20.9657 101.937 20.0946C102.355 19.2235 102.899 18.5339 103.571 18.0257C104.26 17.5176 104.995 17.1364 105.776 16.8824C106.556 16.6101 107.355 16.474 108.171 16.474C108.988 16.474 109.787 16.6101 110.567 16.8824C111.365 17.1364 112.1 17.5176 112.772 18.0257C113.462 18.5339 114.015 19.2235 114.432 20.0946C114.85 20.9657 115.059 21.9457 115.059 23.0346C115.059 24.1235 114.85 25.0944 114.432 25.9474C114.015 26.8004 113.462 27.4809 112.772 27.9891C111.393 29.0235 109.841 29.5407 108.117 29.5407Z" fill="#D5FFC0"/>
<path d="M131.268 28.7241H132.629V29.2685H125.824V28.7241H127.185V21.1018C127.185 19.8133 126.994 18.8968 126.613 18.3524C126.232 17.8079 125.66 17.5357 124.898 17.5357C123.864 17.5357 123.038 18.0802 122.421 19.169V28.7241H123.782V29.2685H116.976V28.7241H118.338V17.2907H116.976V16.7463H122.421V18.1618C122.766 17.69 123.301 17.2907 124.027 16.964C124.771 16.6192 125.57 16.4468 126.423 16.4468C129.653 16.4468 131.268 18.1981 131.268 21.7007V28.7241Z" fill="#D5FFC0"/>
<path d="M147.176 29.2685H140.371V28.7241H141.732V17.2907H140.371V16.7463H145.815V19.9857C145.978 19.0965 146.269 18.3705 146.686 17.8079C147.122 17.2453 147.594 16.8733 148.102 16.6918C148.628 16.5103 149.127 16.4196 149.599 16.4196C150.089 16.4196 150.552 16.5103 150.987 16.6918C151.441 16.8552 151.777 17.2 151.995 17.7263C152.212 18.2344 152.221 18.7516 152.022 19.2779C151.822 19.7861 151.468 20.149 150.96 20.3668C150.47 20.5846 150.016 20.6118 149.599 20.4485C149.182 20.2852 148.882 20.0674 148.701 19.7952C148.519 19.5048 148.392 19.2326 148.32 18.9785C148.138 18.307 147.893 17.9713 147.585 17.9713C147.24 17.9713 146.859 18.5702 146.441 19.7679C146.024 20.9476 145.815 22.1998 145.815 23.5246V28.7241H147.176V29.2685Z" fill="#D5FFC0"/>
<path d="M158.974 28.7241H160.335V29.2685H153.53V28.7241H154.891V17.2907H153.802V16.7463H158.974V28.7241ZM159.219 13.1529C159.219 13.8063 158.983 14.3688 158.512 14.8407C158.058 15.2944 157.495 15.5213 156.824 15.5213C156.17 15.5213 155.608 15.2944 155.136 14.8407C154.664 14.3688 154.428 13.8063 154.428 13.1529C154.428 12.4814 154.664 11.9098 155.136 11.4379C155.608 10.9661 156.17 10.7301 156.824 10.7301C157.495 10.7301 158.058 10.9661 158.512 11.4379C158.983 11.9098 159.219 12.4814 159.219 13.1529Z" fill="#D5FFC0"/>
<path d="M176.541 28.7241H177.902V29.2685H171.097V28.7241H172.458V21.1018C172.458 19.8133 172.267 18.8968 171.886 18.3524C171.505 17.8079 170.933 17.5357 170.171 17.5357C169.137 17.5357 168.311 18.0802 167.694 19.169V28.7241H169.055V29.2685H162.25V28.7241H163.611V17.2907H162.25V16.7463H167.694V18.1618C168.039 17.69 168.574 17.2907 169.3 16.964C170.044 16.6192 170.843 16.4468 171.696 16.4468C174.926 16.4468 176.541 18.1981 176.541 21.7007V28.7241Z" fill="#D5FFC0"/>
<path d="M183.116 26.7368C183.116 27.245 183.443 27.5354 184.096 27.608H188.779C190.394 27.608 191.519 27.9528 192.154 28.6424C192.789 29.332 193.007 30.185 192.807 31.2013C192.626 32.2176 192.009 33.1522 190.956 34.0052C189.904 34.8582 188.452 35.2847 186.601 35.2847C183.207 35.2847 181.029 34.7856 180.067 33.7874C179.704 33.3882 179.55 32.9163 179.605 32.3719C179.659 31.8456 179.859 31.41 180.203 31.0652C180.548 30.7385 180.938 30.5117 181.374 30.3846C180.793 29.8946 180.503 29.2867 180.503 28.5607C180.503 27.8348 180.721 27.1906 181.156 26.628C181.61 26.0472 182.127 25.5844 182.708 25.2396C180.621 24.4774 179.577 23.1072 179.577 21.1291C179.577 19.659 180.249 18.5248 181.592 17.7263C182.953 16.9096 184.486 16.5013 186.192 16.5013C187.009 16.5013 187.826 16.6283 188.642 16.8824C188.225 16.3198 188.016 15.6483 188.016 14.8679C188.016 14.0875 188.279 13.4433 188.806 12.9351C189.35 12.4088 190.022 12.1457 190.82 12.1457C191.637 12.1457 192.245 12.3635 192.644 12.799C193.061 13.2164 193.27 13.6883 193.27 14.2146C193.27 14.7409 193.107 15.1855 192.78 15.5485C192.472 15.9114 192.054 16.0929 191.528 16.0929C191.02 16.0929 190.611 15.9205 190.303 15.5757C189.994 15.2309 189.84 14.8861 189.84 14.5413C189.84 14.1783 189.904 13.8698 190.031 13.6157C190.176 13.3435 190.249 13.1892 190.249 13.1529C190.194 12.8625 190.013 12.7809 189.704 12.9079C189.396 13.035 189.123 13.2981 188.887 13.6974C188.67 14.0785 188.561 14.5231 188.561 15.0313C188.561 16.0294 189.005 16.8279 189.895 17.4268C191.455 18.2979 192.236 19.5048 192.236 21.0474C192.236 22.59 191.591 23.7605 190.303 24.5591C189.014 25.3394 187.49 25.7296 185.73 25.7296C184.877 25.7296 184.123 25.6389 183.47 25.4574C183.234 25.8567 183.116 26.2831 183.116 26.7368ZM188.152 21.0746C188.152 19.5139 187.971 18.4522 187.608 17.8896C187.245 17.327 186.701 17.0457 185.975 17.0457C185.267 17.0457 184.75 17.3361 184.423 17.9168C184.096 18.4794 183.933 19.5229 183.933 21.0474C183.933 22.5718 184.105 23.6426 184.45 24.2596C184.795 24.8767 185.312 25.1852 186.002 25.1852C186.71 25.1852 187.245 24.8857 187.608 24.2868C187.971 23.6879 188.152 22.6172 188.152 21.0746ZM188.615 31.1469H184.042C183.171 31.1469 182.436 30.9926 181.837 30.6841C181.583 31.9908 181.909 32.9889 182.817 33.6785C183.742 34.3863 185.004 34.7402 186.601 34.7402C188.198 34.7402 189.523 34.3409 190.575 33.5424C191.065 33.1795 191.337 32.8165 191.392 32.4535C191.446 32.0906 191.238 31.7821 190.766 31.528C190.294 31.2739 189.577 31.1469 188.615 31.1469Z" fill="#D5FFC0"/>
</svg>
